<?xml version="1.0" standalone="no"?>
<!DOCTYPE svg PUBLIC "-//W3C//DTD SVG 20010904//EN"
 "http://www.w3.org/TR/2001/REC-SVG-20010904/DTD/svg10.dtd">
<svg version="1.0" xmlns="http://www.w3.org/2000/svg"
 width="700.000000pt" height="700.000000pt" viewBox="0 0 700.000000 700.000000"
 preserveAspectRatio="xMidYMid meet">
<g transform="translate(0.000000,700.000000) scale(0.100000,-0.100000)"
fill="#000000" stroke="none">
<path d="M3280 3500 c-150 -32 -270 -141 -316 -287 -22 -68 -20 -186 3 -258
25 -76 90 -166 153 -210 58 -41 150 -75 216 -80 67 -5 184 15 236 40 96 47
173 127 214 224 23 53 28 77 28 151 0 74 -5 98 -28 151 -58 137 -181 234 -331
260 -75 13 -100 13 -175 9z"/>
</g>
</svg>